<svg xmlns="http://www.w3.org/2000/svg" width="480" height="204" viewBox="0 0 480 204" font-family="-apple-system,BlinkMacSystemFont,'Segoe UI','Noto Sans',Helvetica,Arial,sans-serif">
  <defs>
    <clipPath id="bar"><rect x="24" y="58" width="432" height="10" rx="5" /></clipPath>
  </defs>
  <rect x="0.5" y="0.5" width="479" height="203" rx="10" fill="#0d1117" stroke="#30363d" />
  <text x="24" y="36" font-size="15" font-weight="600" fill="#e6edf3">Most used languages</text>
  <rect x="24" y="58" width="432" height="10" rx="5" fill="#21262d" />
  <g clip-path="url(#bar)"><rect x="24.00" y="58" width="192.50" height="10" fill="#f1e05a" /><rect x="218.50" y="58" width="92.01" height="10" fill="#4fc3f7" /><rect x="312.51" y="58" width="76.75" height="10" fill="#3178c6" /><rect x="391.25" y="58" width="25.86" height="10" fill="#89e051" /><rect x="419.11" y="58" width="10.80" height="10" fill="#f85149" /><rect x="431.91" y="58" width="10.70" height="10" fill="#a371f7" /><rect x="444.61" y="58" width="3.01" height="10" fill="#178600" /><rect x="449.62" y="58" width="6.38" height="10" fill="#8b949e" /></g>
  <g>
    <circle cx="29.0" cy="98" r="5" fill="#f1e05a" />
    <text x="42.0" y="102" font-size="13" fill="#c9d1d9">JavaScript <tspan fill="#8b949e">45.0%</tspan></text>
    <circle cx="245.0" cy="98" r="5" fill="#4fc3f7" />
    <text x="258.0" y="102" font-size="13" fill="#c9d1d9">PowerShell <tspan fill="#8b949e">21.8%</tspan></text>
    <circle cx="29.0" cy="124" r="5" fill="#3178c6" />
    <text x="42.0" y="128" font-size="13" fill="#c9d1d9">TypeScript <tspan fill="#8b949e">18.2%</tspan></text>
    <circle cx="245.0" cy="124" r="5" fill="#89e051" />
    <text x="258.0" y="128" font-size="13" fill="#c9d1d9">Shell <tspan fill="#8b949e">6.4%</tspan></text>
    <circle cx="29.0" cy="150" r="5" fill="#f85149" />
    <text x="42.0" y="154" font-size="13" fill="#c9d1d9">Ruby <tspan fill="#8b949e">3.0%</tspan></text>
    <circle cx="245.0" cy="150" r="5" fill="#a371f7" />
    <text x="258.0" y="154" font-size="13" fill="#c9d1d9">Python <tspan fill="#8b949e">2.9%</tspan></text>
    <circle cx="29.0" cy="176" r="5" fill="#178600" />
    <text x="42.0" y="180" font-size="13" fill="#c9d1d9">C# <tspan fill="#8b949e">1.2%</tspan></text>
    <circle cx="245.0" cy="176" r="5" fill="#8b949e" />
    <text x="258.0" y="180" font-size="13" fill="#c9d1d9">Other <tspan fill="#8b949e">1.5%</tspan></text>
  </g>
</svg>
